P3
20 20 255
255 255 255
75 0 130
221 160 221
75 0 130
221 160 221
75 0 130
221 160 221
75 0 130
221 160 221
75 0 130
221 160 221
75 0 130
221 160 221
75 0 130
221 160 221
75 0 130
221 160 221
75 0 130
221 160 221
75 0 130
75 0 130
221 160 221
75 0 130
221 160 221
75 0 130
221 160 221
75 0 130
221 160 221
75 0 130
221 160 221
75 0 130
221 160 221
75 0 130
221 160 221
75 0 130
221 160 221
75 0 130
221 160 221
75 0 130
221 160 221
221 160 221
75 0 130
221 160 221
75 0 130
221 160 221
75 0 130
221 160 221
75 0 130
221 160 221
75 0 130
221 160 221
75 0 130
221 160 221
75 0 130
221 160 221
75 0 130
221 160 221
75 0 130
221 160 221
75 0 130
75 0 130
221 160 221
75 0 130
221 160 221
75 0 130
221 160 221
75 0 130
221 160 221
75 0 130
221 160 221
75 0 130
221 160 221
75 0 130
221 160 221
75 0 130
221 160 221
75 0 130
221 160 221
75 0 130
221 160 221
221 160 221
75 0 130
221 160 221
75 0 130
221 160 221
75 0 130
221 160 221
75 0 130
221 160 221
75 0 130
221 160 221
75 0 130
221 160 221
75 0 130
221 160 221
75 0 130
221 160 221
75 0 130
221 160 221
75 0 130
75 0 130
221 160 221
75 0 130
221 160 221
75 0 130
221 160 221
75 0 130
221 160 221
75 0 130
221 160 221
75 0 130
221 160 221
75 0 130
221 160 221
75 0 130
221 160 221
75 0 130
221 160 221
75 0 130
221 160 221
221 160 221
75 0 130
221 160 221
75 0 130
221 160 221
75 0 130
221 160 221
75 0 130
221 160 221
75 0 130
221 160 221
75 0 130
221 160 221
75 0 130
221 160 221
75 0 130
221 160 221
75 0 130
221 160 221
75 0 130
75 0 130
221 160 221
75 0 130
221 160 221
75 0 130
221 160 221
75 0 130
221 160 221
75 0 130
221 160 221
75 0 130
221 160 221
75 0 130
221 160 221
75 0 130
221 160 221
75 0 130
221 160 221
75 0 130
221 160 221
221 160 221
75 0 130
221 160 221
75 0 130
221 160 221
75 0 130
221 160 221
75 0 130
221 160 221
75 0 130
221 160 221
75 0 130
221 160 221
75 0 130
221 160 221
75 0 130
221 160 221
75 0 130
221 160 221
75 0 130
75 0 130
221 160 221
75 0 130
221 160 221
75 0 130
221 160 221
75 0 130
221 160 221
75 0 130
221 160 221
75 0 130
221 160 221
75 0 130
221 160 221
75 0 130
221 160 221
75 0 130
221 160 221
75 0 130
221 160 221
221 160 221
75 0 130
221 160 221
75 0 130
221 160 221
75 0 130
221 160 221
75 0 130
221 160 221
75 0 130
221 160 221
75 0 130
221 160 221
75 0 130
221 160 221
75 0 130
221 160 221
75 0 130
221 160 221
75 0 130
75 0 130
221 160 221
75 0 130
221 160 221
75 0 130
221 160 221
75 0 130
221 160 221
75 0 130
221 160 221
75 0 130
221 160 221
75 0 130
221 160 221
75 0 130
221 160 221
75 0 130
221 160 221
75 0 130
221 160 221
221 160 221
75 0 130
221 160 221
75 0 130
221 160 221
75 0 130
221 160 221
75 0 130
221 160 221
75 0 130
221 160 221
75 0 130
221 160 221
75 0 130
221 160 221
75 0 130
221 160 221
75 0 130
221 160 221
75 0 130
75 0 130
221 160 221
75 0 130
221 160 221
75 0 130
221 160 221
75 0 130
221 160 221
75 0 130
221 160 221
75 0 130
221 160 221
75 0 130
221 160 221
75 0 130
221 160 221
75 0 130
221 160 221
75 0 130
221 160 221
221 160 221
75 0 130
221 160 221
75 0 130
221 160 221
75 0 130
221 160 221
75 0 130
221 160 221
75 0 130
221 160 221
75 0 130
221 160 221
75 0 130
221 160 221
75 0 130
221 160 221
75 0 130
221 160 221
75 0 130
75 0 130
221 160 221
75 0 130
221 160 221
75 0 130
221 160 221
75 0 130
221 160 221
75 0 130
221 160 221
75 0 130
221 160 221
75 0 130
221 160 221
75 0 130
221 160 221
75 0 130
221 160 221
75 0 130
221 160 221
221 160 221
75 0 130
221 160 221
75 0 130
221 160 221
75 0 130
221 160 221
75 0 130
221 160 221
75 0 130
221 160 221
75 0 130
221 160 221
75 0 130
221 160 221
75 0 130
221 160 221
75 0 130
221 160 221
75 0 130
75 0 130
221 160 221
75 0 130
221 160 221
75 0 130
221 160 221
75 0 130
221 160 221
75 0 130
221 160 221
75 0 130
221 160 221
75 0 130
221 160 221
75 0 130
221 160 221
75 0 130
221 160 221
75 0 130
221 160 221
221 160 221
75 0 130
221 160 221
75 0 130
221 160 221
75 0 130
221 160 221
75 0 130
221 160 221
75 0 130
221 160 221
75 0 130
221 160 221
75 0 130
221 160 221
75 0 130
221 160 221
75 0 130
221 160 221
75 0 130
75 0 130
221 160 221
75 0 130
221 160 221
75 0 130
221 160 221
75 0 130
221 160 221
75 0 130
221 160 221
75 0 130
221 160 221
75 0 130
221 160 221
75 0 130
221 160 221
75 0 130
221 160 221
75 0 130
255 255 255
