P3
75 1 255
255 255 255
255 255 255
255 255 255
255 255 255
255 255 255
255 255 255
255 255 255
255 255 255
255 255 255
255 255 255
255 255 255
255 255 255
255 255 255
255 255 255
255 255 255
255 255 255
255 255 255
255 255 255
255 255 255
255 255 255
255 255 255
255 255 255
255 255 255
255 255 255
255 255 255
255 255 255
255 255 255
255 255 255
255 255 255
255 255 255
255 255 255
255 255 255
255 255 255
255 255 255
255 255 255
255 255 255
255 255 255
0 0 232
0 0 223
0 0 140
0 0 227
0 0 146
0 0 42
0 0 112
0 0 47
0 0 34
0 0 65
0 0 36
0 0 188
0 0 222
0 0 190
0 0 74
0 0 141
0 0 217
0 0 38
0 0 89
0 0 147
0 0 29
0 0 43
0 0 58
0 0 79
0 0 84
0 0 90
0 0 5
0 0 5
0 0 5
0 0 38
0 0 47
0 0 56
0 0 38
0 0 47
0 0 56
0 0 255
0 0 255
0 0 255
